<svg xmlns="http://www.w3.org/2000/svg" width="1200" height="340" viewBox="0 0 1200 340">
<defs><marker id="arrow" viewBox="0 0 10 10" refX="9" refY="5" markerWidth="6" markerHeight="6" orient="auto"><path d="M0 0L10 5L0 10Z" fill="#9b4b24"/></marker></defs>
<g font-family="Libertinus Serif,serif" fill="#111" font-size="23">
<path d="M590 32V308" fill="none" stroke="#555" stroke-width="2"/>
<path d="M100 170H1080" fill="none" stroke="#bbb" stroke-width="1"/>
<text x="612" y="29">Re(s) = 1/2</text>
<path d="M350 82H840 M350 270H840 M350 82L840 270 M350 270L840 82" fill="none" stroke="#999" stroke-width="1.5" stroke-dasharray="6 6"/>
<path d="M793 82H683" fill="none" stroke="#9b4b24" stroke-width="3" marker-end="url(#arrow)"/>
<path d="M832 72L785 40" fill="none" stroke="#9b4b24" stroke-width="3" marker-end="url(#arrow)"/>
<g fill="#295f87"><circle cx="350" cy="82" r="6"/><circle cx="840" cy="82" r="6"/><circle cx="350" cy="270" r="6"/><circle cx="840" cy="270" r="6"/></g>
<text x="330" y="62" text-anchor="end">s† = 1/2 − d + i y</text>
<text x="860" y="62">s = 1/2 + d + i y</text>
<text x="330" y="297" text-anchor="end">1 − s = 1/2 − d − i y</text>
<text x="860" y="297">conj(s)</text>
<circle cx="590" cy="82" r="4" fill="#111"/>
<text x="590" y="130" text-anchor="middle">paired centre: 1/2 + i y</text>
<text x="702" y="60">1/d</text>
<text x="924" y="187" text-anchor="middle">normal current</text>
<text x="924" y="215" text-anchor="middle">depends on d and y</text>
<text x="1065" y="163">Re</text>
</g></svg>
